<?xml version="1.0" encoding="UTF-8"?>
<svg xmlns="http://www.w3.org/2000/svg" width="1180" height="730" viewBox="0 0 1180 730" role="img" aria-label="Hình 2.2 — Biểu đồ ngữ cảnh của hệ thống Secure Vault">
<defs>
<marker id="arw" viewBox="0 0 10 10" refX="9" refY="5" markerWidth="7" markerHeight="7" orient="auto-start-reverse"><path d="M0 0 L10 5 L0 10 z" fill="#44506080"/></marker>
<marker id="arwd" viewBox="0 0 10 10" refX="9" refY="5" markerWidth="7" markerHeight="7" orient="auto-start-reverse"><path d="M0 0 L10 5 L0 10 z" fill="#8a94a4"/></marker>
<marker id="arwo" viewBox="0 0 10 10" refX="9" refY="5" markerWidth="8" markerHeight="8" orient="auto-start-reverse"><path d="M0 0 L10 5 L0 10 z" fill="none" stroke="#445060" stroke-width="1.4"/></marker>
</defs>
<style>text{font-family:'Segoe UI','Helvetica Neue',Helvetica,Arial,sans-serif;fill:#1c2330}.ttl{font-size:20px;font-weight:700}.sub{font-size:12px;fill:#5b6675}.zl{font-size:12px;font-weight:700}.zs{font-size:10.5px;fill:#67707d}.el{font-size:10.5px;fill:#3a45060}.src{font-size:10px;fill:#77808c}</style>
<rect x="0" y="0" width="1180" height="730" fill="#ffffff"/>
<text class="ttl" x="26" y="34">Hình 2.2 — Biểu đồ ngữ cảnh của hệ thống Secure Vault</text>
<text class="sub" x="26" y="54">Toàn bộ trao đổi diễn ra trên một máy; không có thành phần mạng trong đồ thị ứng dụng</text>
<path d="M280 325.0 L400 325.0" fill="none" stroke="#5b6675" stroke-width="1.5" marker-end="url(#arw)"/>
<rect x="259.3075" y="273.0" width="171.38500000000002" height="31.0" rx="3" fill="#ffffffe0"/>
<text x="345" y="283.5" text-anchor="middle" font-size="10.5" fill="#3a5060">đường dẫn tệp, mật khẩu, tham</text>
<text x="345" y="297.0" text-anchor="middle" font-size="10.5" fill="#3a5060">số</text>
<path d="M400 325.0 L280 325.0" fill="none" stroke="#5b6675" stroke-width="1.5" marker-end="url(#arw)"/>
<rect x="262.09" y="345.0" width="165.82000000000002" height="31.0" rx="3" fill="#ffffffe0"/>
<text x="345" y="355.5" text-anchor="middle" font-size="10.5" fill="#3a5060">trạng thái, mã lỗi SV-*, kết</text>
<text x="345" y="369.0" text-anchor="middle" font-size="10.5" fill="#3a5060">quả không bí mật</text>
<path d="M180.0 470 L590.0 400" fill="none" stroke="#8a94a4" stroke-width="1.5" stroke-dasharray="6 4" marker-end="url(#arwd)"/>
<rect x="264.8725" y="426.5" width="160.255" height="17.5" rx="3" fill="#ffffffe0"/>
<text x="345" y="437.0" text-anchor="middle" font-size="10.5" fill="#3a5060">nhị phân đã ghim băm BLAKE3</text>
<path d="M590.0 250 L1010.0 160" fill="none" stroke="#5b6675" stroke-width="1.5" marker-end="url(#arw)"/>
<rect x="762.09" y="123.0" width="165.82000000000002" height="31.0" rx="3" fill="#ffffffe0"/>
<text x="845" y="133.5" text-anchor="middle" font-size="10.5" fill="#3a5060">stdin/stdout, env_clear, hết</text>
<text x="845" y="147.0" text-anchor="middle" font-size="10.5" fill="#3a5060">giờ 120 s</text>
<path d="M780 325.0 L900 245.0" fill="none" stroke="#5b6675" stroke-width="1.5" marker-end="url(#arw)"/>
<rect x="756.525" y="236.5" width="176.95000000000002" height="17.5" rx="3" fill="#ffffffe0"/>
<text x="845" y="247.0" text-anchor="middle" font-size="10.5" fill="#3a5060">argv, -config &quot;&quot;, hết giờ 60 s</text>
<path d="M780 325.0 L900 379.0" fill="none" stroke="#5b6675" stroke-width="1.5" marker-end="url(#arw)"/>
<rect x="756.525" y="316.5" width="176.95000000000002" height="17.5" rx="3" fill="#ffffffe0"/>
<text x="845" y="327.0" text-anchor="middle" font-size="10.5" fill="#3a5060">đọc có giới hạn, ghi nguyên tử</text>
<path d="M590.0 400 L1010.0 460" fill="none" stroke="#8a94a4" stroke-width="1.5" stroke-dasharray="6 4" marker-end="url(#arwd)"/>
<rect x="764.8725" y="426.5" width="160.255" height="17.5" rx="3" fill="#ffffffe0"/>
<text x="845" y="437.0" text-anchor="middle" font-size="10.5" fill="#3a5060">sinh số ngẫu nhiên, tệp tạm</text>
<rect x="400" y="250" width="380" height="150" rx="7" fill="#E6F4EA" stroke="#2E7D46" stroke-width="1.6"/>
<text x="590.0" y="324.25" text-anchor="middle" font-size="14" font-weight="700" fill="#12401F">Secure Vault — Bộ công cụ Bảo mật &amp; Riêng tư</text>
<text x="590.0" y="340.25" text-anchor="middle" font-size="10" fill="#12401Fbb">Ứng dụng máy tính để bàn Tauri 2 · Rust · hoàn toàn ngoại tuyến</text>
<rect x="80" y="290" width="200" height="70" rx="7" fill="#E8F0FE" stroke="#3B6FD4" stroke-width="1.6"/>
<text x="180.0" y="317.25" text-anchor="middle" font-size="12.5" font-weight="700" fill="#12305F">Người dùng cuối</text>
<text x="180.0" y="331.75" text-anchor="middle" font-size="10" fill="#12305Fbb">một người dùng, một máy, không tài</text>
<text x="180.0" y="344.25" text-anchor="middle" font-size="10" fill="#12305Fbb">khoản</text>
<rect x="80" y="470" width="200" height="70" rx="7" fill="#E8F0FE" stroke="#3B6FD4" stroke-width="1.6"/>
<text x="180.0" y="497.25" text-anchor="middle" font-size="12.5" font-weight="700" fill="#12305F">Nhà phát triển / đóng gói</text>
<text x="180.0" y="511.75" text-anchor="middle" font-size="10" fill="#12305Fbb">cargo tauri build · stage + ghim</text>
<text x="180.0" y="524.25" text-anchor="middle" font-size="10" fill="#12305Fbb">băm</text>
<rect x="900" y="90" width="220" height="70" rx="7" fill="#FDE8E8" stroke="#C0392B" stroke-width="1.6"/>
<text x="1010.0" y="123.5" text-anchor="middle" font-size="12.5" font-weight="700" fill="#5E1611">age / age-keygen v1</text>
<text x="1010.0" y="138.0" text-anchor="middle" font-size="10" fill="#5E1611bb">X25519 + ChaCha20-Poly1305</text>
<rect x="900" y="210" width="220" height="70" rx="7" fill="#FDE8E8" stroke="#C0392B" stroke-width="1.6"/>
<text x="1010.0" y="243.5" text-anchor="middle" font-size="12.5" font-weight="700" fill="#5E1611">ExifTool</text>
<text x="1010.0" y="258.0" text-anchor="middle" font-size="10" fill="#5E1611bb">đọc / ghi siêu dữ liệu</text>
<path d="M900 354 A110.0 14 0 0 1 1120 354 L1120 404 A110.0 14 0 0 1 900 404 Z" fill="#EAF6F6" stroke="#0F7B7B" stroke-width="1.6"/><path d="M900 354 A110.0 14 0 0 0 1120 354" fill="none" stroke="#0F7B7B" stroke-width="1.6"/>
<text x="1010.0" y="371.25" text-anchor="middle" font-size="12.5" font-weight="700" fill="#0A3D3D">Hệ thống tệp cục bộ</text>
<text x="1010.0" y="385.75" text-anchor="middle" font-size="10" fill="#0A3D3Dbb">.svault · .svenc · .svkey · .svss ·</text>
<text x="1010.0" y="398.25" text-anchor="middle" font-size="10" fill="#0A3D3Dbb">ảnh</text>
<rect x="900" y="460" width="220" height="70" rx="7" fill="#EFEFEF" stroke="#5B6675" stroke-width="1.6"/>
<text x="1010.0" y="493.5" text-anchor="middle" font-size="12.5" font-weight="700" fill="#1C2330">Dịch vụ hệ điều hành</text>
<text x="1010.0" y="508.0" text-anchor="middle" font-size="10" fill="#1C2330bb">getrandom (CSPRNG) · tệp tạm 0600</text>
<rect x="400" y="470" width="380" height="60" rx="7" fill="#FCE4E4" stroke="#B3261E" stroke-width="1.6"/>
<text x="590.0" y="491.75" text-anchor="middle" font-size="11.5" font-weight="700" fill="#5E1611">KHÔNG có máy chủ, dịch vụ đám mây hay đồng bộ</text>
<text x="590.0" y="505.25" text-anchor="middle" font-size="10" fill="#5E1611bb">CSP default-src &#x27;self&#x27;; không có ứng dụng khách mạng nào trong đồ</text>
<text x="590.0" y="517.75" text-anchor="middle" font-size="10" fill="#5E1611bb">thị</text>
<text x="80" y="640" text-anchor="start" font-size="11" font-weight="400" fill="#3a4a5a">Đơn vị chia sẻ duy nhất là một tệp mà người dùng tự di chuyển: két .svault, tệp .svenc, các mảnh Shamir hoặc ảnh mang dữ liệu ẩn. Hệ thống không có kênh truyền nào.</text>
<text class="src" x="26" y="704">Nguon: docs/architecture/01-system-overview.md §1.4; desktop/tauri.conf.json (CSP default-src &#x27;self&#x27;); desktop/src/lib.rs resolve_binary</text>
</svg>